<svg width="256" height="256" viewBox="0 0 256 256" fill="none" xmlns="http://www.w3.org/2000/svg">
  <defs>
    <linearGradient id="sunGradient" x1="40" y1="32" x2="210" y2="224" gradientUnits="userSpaceOnUse">
      <stop stop-color="#FFD56A"/>
      <stop offset="0.46" stop-color="#F59E0B"/>
      <stop offset="1" stop-color="#C7642B"/>
    </linearGradient>
    <linearGradient id="paperGlow" x1="122" y1="58" x2="196" y2="188" gradientUnits="userSpaceOnUse">
      <stop stop-color="#FFFDF8"/>
      <stop offset="1" stop-color="#FFF0DD"/>
    </linearGradient>
  </defs>

  <circle cx="128" cy="128" r="88" fill="url(#sunGradient)"/>
  <path d="M88 86C88 76.059 96.059 68 106 68H150.402C155.176 68 159.754 69.8964 163.13 73.2721L181.728 91.8701C185.104 95.2459 187 99.8239 187 104.598V168C187 177.941 178.941 186 169 186H106C96.059 186 88 177.941 88 168V86Z" fill="url(#paperGlow)"/>
  <path d="M160 69.479C161.112 70.1616 162.153 70.9642 163.13 71.9411L182.059 90.8701C183.036 91.847 183.838 92.8885 184.521 94H168C163.582 94 160 90.4183 160 86V69.479Z" fill="#FFE8C8"/>
  <rect x="108" y="112" width="58" height="16" rx="8" fill="#C7642B" opacity="0.16"/>
  <path d="M113.37 125V102.36H122.244C124.038 102.36 125.579 102.721 126.867 103.444C128.176 104.167 129.182 105.194 129.885 106.524C130.608 107.833 130.969 109.374 130.969 111.146C130.969 112.94 130.608 114.492 129.885 115.8C129.182 117.109 128.176 118.114 126.867 118.815C125.579 119.517 124.038 119.868 122.244 119.868H118.628V125H113.37Z" fill="#8F3C1A"/>
  <path d="M135.173 125V102.36H143.816C146.008 102.36 147.87 102.798 149.402 103.674C150.955 104.53 152.131 105.744 152.928 107.316C153.747 108.866 154.156 110.68 154.156 112.756C154.156 114.832 153.747 116.656 152.928 118.228C152.131 119.779 150.955 120.994 149.402 121.872C147.87 122.729 146.008 123.157 143.816 123.157H135.173V125ZM140.431 118.012H143.419C144.466 118.012 145.371 117.802 146.134 117.381C146.918 116.94 147.517 116.308 147.931 115.486C148.345 114.663 148.552 113.753 148.552 112.756C148.552 111.757 148.345 110.846 147.931 110.024C147.517 109.201 146.918 108.58 146.134 108.16C145.371 107.719 144.466 107.499 143.419 107.499H140.431V118.012Z" fill="#8F3C1A"/>
  <path d="M157.812 125V102.36H172.166V106.936H163.07V111.564H170.777V116.022H163.07V125H157.812Z" fill="#8F3C1A"/>
</svg>
